<?xml version="1.0" encoding="UTF-8" standalone="no"?>
<!-- Created with Inkscape (http://www.inkscape.org/) -->

<svg
   xmlns:osb="http://www.openswatchbook.org/uri/2009/osb"
   xmlns:dc="http://purl.org/dc/elements/1.1/"
   xmlns:cc="http://creativecommons.org/ns#"
   xmlns:rdf="http://www.w3.org/1999/02/22-rdf-syntax-ns#"
   xmlns:svg="http://www.w3.org/2000/svg"
   xmlns="http://www.w3.org/2000/svg"
   xmlns:xlink="http://www.w3.org/1999/xlink"
   xmlns:sodipodi="http://sodipodi.sourceforge.net/DTD/sodipodi-0.dtd"
   xmlns:inkscape="http://www.inkscape.org/namespaces/inkscape"
   width="297mm"
   height="210mm"
   viewBox="0 0 1052.3622 744.09448"
   id="svg2"
   version="1.1"
   inkscape:version="0.91 r13725"
   sodipodi:docname="Logo.svg"
   inkscape:export-filename="C:\Users\Mario Muscarella\GitHub\mmuscarella.github.io\images\Logo2.png"
   inkscape:export-xdpi="90"
   inkscape:export-ydpi="90">
  <defs
     id="defs4">
    <marker
       inkscape:stockid="TriangleOutL"
       orient="auto"
       refY="0.0"
       refX="0.0"
       id="TriangleOutL"
       style="overflow:visible"
       inkscape:isstock="true">
      <path
         id="path6125"
         d="M 5.77,0.0 L -2.88,5.0 L -2.88,-5.0 L 5.77,0.0 z "
         style="fill-rule:evenodd;stroke:#000000;stroke-width:1pt;stroke-opacity:1;fill:#000000;fill-opacity:1"
         transform="scale(0.8)" />
    </marker>
    <linearGradient
       inkscape:collect="always"
       id="linearGradient4361">
      <stop
         style="stop-color:#ff0000;stop-opacity:1;"
         offset="0"
         id="stop4363" />
      <stop
         style="stop-color:#ff0000;stop-opacity:0;"
         offset="1"
         id="stop4365" />
    </linearGradient>
    <linearGradient
       inkscape:collect="always"
       id="linearGradient4318">
      <stop
         style="stop-color:#008000;stop-opacity:1;"
         offset="0"
         id="stop4320" />
      <stop
         style="stop-color:#008000;stop-opacity:0;"
         offset="1"
         id="stop4322" />
    </linearGradient>
    <linearGradient
       inkscape:collect="always"
       id="linearGradient4307">
      <stop
         style="stop-color:#0000ba;stop-opacity:1;"
         offset="0"
         id="stop4295" />
      <stop
         style="stop-color:#0000ba;stop-opacity:0;"
         offset="1"
         id="stop4297" />
    </linearGradient>
    <marker
       inkscape:stockid="TriangleOutM"
       orient="auto"
       refY="0"
       refX="0"
       id="TriangleOutM"
       style="overflow:visible"
       inkscape:isstock="true">
      <path
         id="path6071"
         d="m 5.77,0 -8.65,5 0,-10 8.65,5 z"
         style="fill:#000000;fill-opacity:1;fill-rule:evenodd;stroke:#000000;stroke-width:1pt;stroke-opacity:1"
         transform="scale(0.4,0.4)"
         inkscape:connector-curvature="0" />
    </marker>
    <marker
       inkscape:stockid="TriangleInM"
       orient="auto"
       refY="0"
       refX="0"
       id="TriangleInM"
       style="overflow:visible"
       inkscape:isstock="true">
      <path
         id="path6062"
         d="m 5.77,0 -8.65,5 0,-10 8.65,5 z"
         style="fill:#000000;fill-opacity:1;fill-rule:evenodd;stroke:#000000;stroke-width:1pt;stroke-opacity:1"
         transform="scale(-0.4,-0.4)"
         inkscape:connector-curvature="0" />
    </marker>
    <linearGradient
       id="linearGradient5678"
       osb:paint="solid">
      <stop
         style="stop-color:#6562c0;stop-opacity:1;"
         offset="0"
         id="stop5680" />
    </linearGradient>
    <radialGradient
       inkscape:collect="always"
       xlink:href="#linearGradient4307"
       id="radialGradient4299"
       cx="555.17383"
       cy="221.989"
       fx="555.17383"
       fy="221.989"
       r="61.376949"
       gradientTransform="matrix(3.8457612,0.47469032,-0.12545122,1.0163589,-1552.0435,-302.55262)"
       gradientUnits="userSpaceOnUse" />
    <linearGradient
       inkscape:collect="always"
       xlink:href="#linearGradient4318"
       id="linearGradient4324"
       x1="276.86505"
       y1="445.92549"
       x2="429.97919"
       y2="445.92549"
       gradientUnits="userSpaceOnUse"
       gradientTransform="translate(76.923077,16.239316)" />
    <radialGradient
       inkscape:collect="always"
       xlink:href="#linearGradient4361"
       id="radialGradient4367"
       cx="629.54327"
       cy="595.74774"
       fx="629.54327"
       fy="595.74774"
       r="61.352401"
       gradientTransform="matrix(-0.59222709,2.3736188,-1.249115,-0.31165909,1837.7109,-840.96952)"
       gradientUnits="userSpaceOnUse" />
    <radialGradient
       inkscape:collect="always"
       xlink:href="#linearGradient4361"
       id="radialGradient4367-1"
       cx="629.54327"
       cy="595.74774"
       fx="629.54327"
       fy="595.74774"
       r="61.352402"
       gradientTransform="matrix(1.2596342,2.0971697,-1.1036339,0.66288143,236.1359,-1188.4785)"
       gradientUnits="userSpaceOnUse" />
    <radialGradient
       inkscape:collect="always"
       xlink:href="#linearGradient4361"
       id="radialGradient4367-2"
       cx="629.54327"
       cy="595.74774"
       fx="629.54327"
       fy="595.74774"
       r="61.352402"
       gradientTransform="matrix(2.3736188,0.59222709,-0.31165909,1.249115,-692.18491,-707.78016)"
       gradientUnits="userSpaceOnUse" />
    <radialGradient
       inkscape:collect="always"
       xlink:href="#linearGradient4307"
       id="radialGradient4299-3"
       cx="555.17383"
       cy="221.989"
       fx="555.17383"
       fy="221.989"
       r="61.376949"
       gradientTransform="matrix(2.3837071,3.0550206,-0.80738168,0.62996686,-614.27745,-1292.083)"
       gradientUnits="userSpaceOnUse" />
    <marker
       inkscape:stockid="TriangleInM"
       orient="auto"
       refY="0"
       refX="0"
       id="TriangleInM-4"
       style="overflow:visible"
       inkscape:isstock="true">
      <path
         id="path6062-1"
         d="m 5.77,0 -8.65,5 0,-10 8.65,5 z"
         style="fill:#000000;fill-opacity:1;fill-rule:evenodd;stroke:#000000;stroke-width:1pt;stroke-opacity:1"
         transform="scale(-0.4,-0.4)"
         inkscape:connector-curvature="0" />
    </marker>
  </defs>
  <sodipodi:namedview
     id="base"
     pagecolor="#ffffff"
     bordercolor="#666666"
     borderopacity="1.0"
     inkscape:pageopacity="0.0"
     inkscape:pageshadow="2"
     inkscape:zoom="0.45"
     inkscape:cx="148.54976"
     inkscape:cy="578.33511"
     inkscape:document-units="px"
     inkscape:current-layer="g6879"
     showgrid="false"
     inkscape:snap-midpoints="true"
     inkscape:snap-smooth-nodes="true"
     inkscape:window-width="1600"
     inkscape:window-height="848"
     inkscape:window-x="-8"
     inkscape:window-y="-8"
     inkscape:window-maximized="1"
     showguides="true">
    <inkscape:grid
       type="xygrid"
       id="grid4972" />
  </sodipodi:namedview>
  <metadata
     id="metadata7">
    <rdf:RDF>
      <cc:Work
         rdf:about="">
        <dc:format>image/svg+xml</dc:format>
        <dc:type
           rdf:resource="http://purl.org/dc/dcmitype/StillImage" />
        <dc:title></dc:title>
      </cc:Work>
    </rdf:RDF>
  </metadata>
  <g
     inkscape:label="Layer 1"
     inkscape:groupmode="layer"
     id="layer1"
     transform="translate(0,-308.26772)">
    <rect
       style="opacity:0;fill:#ffffff;fill-opacity:1;fill-rule:nonzero;stroke:#000000;stroke-width:1;stroke-linecap:round;stroke-linejoin:miter;stroke-miterlimit:4;stroke-dasharray:none;stroke-opacity:1"
       id="rect5081"
       width="716.73895"
       height="631.91779"
       x="11.309491"
       y="14.716423"
       ry="1.40845" />
    <g
       id="g6879"
       transform="matrix(1.1602398,0,0,1.2549871,-135.99052,-128.2828)">
      <g
         transform="translate(12.340939,0)"
         id="g6863"
         style="stroke:#000000;stroke-opacity:1">
        <g
           id="g4584"
           transform="translate(33.513934,0)"
           style="stroke:#000000;stroke-opacity:1">
          <text
             inkscape:export-ydpi="90"
             inkscape:export-xdpi="90"
             sodipodi:linespacing="125%"
             id="text5887"
             y="823.60822"
             x="429.9231"
             style="font-style:normal;font-variant:normal;font-weight:normal;font-stretch:normal;font-size:106.46124268px;line-height:125%;font-family:'Arial Rounded MT Bold';-inkscape-font-specification:'Arial Rounded MT Bold, Normal';text-align:start;letter-spacing:0px;word-spacing:0px;writing-mode:lr-tb;text-anchor:start;fill:#ff0000;fill-opacity:0.85882353;stroke:#000000;stroke-width:1px;stroke-linecap:butt;stroke-linejoin:miter;stroke-opacity:1"
             xml:space="preserve"><tspan
               y="823.60822"
               x="429.9231"
               id="tspan5889"
               sodipodi:role="line">C</tspan></text>
          <text
             inkscape:export-ydpi="90"
             inkscape:export-xdpi="90"
             sodipodi:linespacing="125%"
             id="text5891"
             y="832.94696"
             x="541.77411"
             style="font-style:normal;font-variant:normal;font-weight:normal;font-stretch:normal;font-size:106.46124268px;line-height:125%;font-family:'Arial Rounded MT Bold';-inkscape-font-specification:'Arial Rounded MT Bold, Normal';text-align:start;letter-spacing:0px;word-spacing:0px;writing-mode:lr-tb;text-anchor:start;fill:#0000ba;fill-opacity:0.81568627;stroke:#000000;stroke-width:1px;stroke-linecap:butt;stroke-linejoin:miter;stroke-opacity:1"
             xml:space="preserve"><tspan
               y="832.94696"
               x="541.77411"
               id="tspan5893"
               sodipodi:role="line">N</tspan></text>
          <text
             inkscape:export-ydpi="90"
             inkscape:export-xdpi="90"
             sodipodi:linespacing="125%"
             id="text5895"
             y="917.15533"
             x="485.74191"
             style="font-style:normal;font-variant:normal;font-weight:normal;font-stretch:normal;font-size:106.46124268px;line-height:125%;font-family:'Arial Rounded MT Bold';-inkscape-font-specification:'Arial Rounded MT Bold, Normal';text-align:start;letter-spacing:0px;word-spacing:0px;writing-mode:lr-tb;text-anchor:start;fill:#008100;fill-opacity:0.84705882;stroke:#000000;stroke-width:1px;stroke-linecap:butt;stroke-linejoin:miter;stroke-opacity:1"
             xml:space="preserve"><tspan
               y="917.15533"
               x="485.74191"
               id="tspan5897"
               sodipodi:role="line">P</tspan></text>
        </g>
        <g
           id="g4592"
           style="stroke:#000000;stroke-opacity:1">
          <path
             inkscape:connector-curvature="0"
             d="m 504.40227,489.20349 a 20.704714,21.922638 0 0 1 -20.70471,21.92264 20.704714,21.922638 0 0 1 -20.70472,-21.92264 20.704714,21.922638 0 0 1 20.70472,-21.92264 20.704714,21.922638 0 0 1 20.70471,21.92264 z m -28,-32 a 20.704714,21.922638 0 0 1 -20.70471,21.92264 20.704714,21.922638 0 0 1 -20.70472,-21.92264 20.704714,21.922638 0 0 1 20.70472,-21.92264 20.704714,21.922638 0 0 1 20.70471,21.92264 z m -78.70471,-22.07736 a 20.704714,21.922638 0 0 1 -20.70472,21.92264 20.704714,21.922638 0 0 1 -20.70471,-21.92264 20.704714,21.922638 0 0 1 20.70471,-21.92264 20.704714,21.922638 0 0 1 20.70472,21.92264 z m 37.29529,22.07736 a 20.704714,21.922638 0 0 1 -20.70472,21.92264 20.704714,21.922638 0 0 1 -20.70471,-21.92264 20.704714,21.922638 0 0 1 20.70471,-21.92264 20.704714,21.922638 0 0 1 20.70472,21.92264 z"
             style="fill:url(#linearGradient4324);fill-opacity:1;fill-rule:nonzero;stroke:#000000;stroke-width:5;stroke-linecap:round;stroke-linejoin:miter;stroke-miterlimit:4;stroke-dasharray:none;stroke-opacity:1"
             id="path3396-8-2" />
          <path
             inkscape:connector-curvature="0"
             id="rect3436"
             transform="translate(0,308.26772)"
             d="m 555.17383,149.04102 c -0.69255,0 -1.30034,0.32909 -1.69141,0.83593 a 8.4821033,18.0623 0 0 0 -0.93359,-0.11718 8.4821033,18.0623 0 0 0 -8.48242,18.0625 8.4821033,18.0623 0 0 0 8.48242,18.0625 8.4821033,18.0623 0 0 0 0.92578,-0.12891 c 0.39064,0.51321 1.00161,0.84766 1.69922,0.84766 l 97.50195,0 c 0.71506,0 1.33984,-0.34944 1.72852,-0.88477 a 8.4821033,18.0623 0 0 0 7.41601,-17.89648 8.4821033,18.0623 0 0 0 -7.42187,-17.90235 c -0.38907,-0.53152 -1.01059,-0.8789 -1.72266,-0.8789 l -97.50195,0 z"
             style="fill:url(#radialGradient4299);fill-opacity:1;fill-rule:nonzero;stroke:#000000;stroke-width:5;stroke-linecap:round;stroke-linejoin:miter;stroke-miterlimit:4;stroke-dasharray:none;stroke-opacity:1" />
          <path
             inkscape:transform-center-y="64.092748"
             inkscape:transform-center-x="-36.722539"
             inkscape:connector-curvature="0"
             id="rect3436-1"
             d="m 742.66721,478.60652 c -4.13609,-7.68383 -13.4879,-11.53877 -21.94636,-10.95048 -5.09424,0.40024 -10.84261,1.69632 -14.12432,5.9172 -3.37361,5.30046 1.57387,10.17948 3.85475,14.6951 7.3403,13.24717 14.27103,27.94942 12.93427,43.48831 -1.50021,13.27814 -6.72722,25.67167 -10.58868,38.3446 -1.39864,4.60353 -1.94078,10.92629 2.87095,13.76814 4.04734,1.86227 8.88496,1.47849 13.2551,1.08687 4.71894,-0.7776 9.95872,-2.202 12.57586,-6.57134 10.28591,-12.82934 18.76387,-28.46805 18.54463,-45.31789 -0.71781,-19.35158 -8.73578,-37.46762 -17.3762,-54.46051 z"
             style="fill:url(#radialGradient4367);fill-opacity:1;fill-rule:nonzero;stroke:#000000;stroke-width:5;stroke-linecap:round;stroke-linejoin:miter;stroke-miterlimit:4;stroke-dasharray:none;stroke-opacity:1" />
          <path
             inkscape:transform-center-y="25.017446"
             inkscape:transform-center-x="-64.91844"
             inkscape:connector-curvature="0"
             id="rect3436-1-9"
             d="m 394.90427,518.91551 c -8.35795,-2.50863 -17.69653,1.37824 -23.26158,7.77526 -3.31916,3.88519 -6.4674,8.86636 -5.80331,14.1715 1.36249,6.13349 8.31087,6.08508 13.11673,7.66528 14.55753,4.17679 29.85436,9.67208 39.89678,21.60497 8.32826,10.44987 13.39575,22.90947 19.6264,34.60105 2.2662,4.24418 6.35372,9.0984 11.76562,7.70548 4.17872,-1.54508 7.32806,-5.23716 10.1413,-8.60424 2.78695,-3.88664 5.48483,-8.59892 4.24584,-13.53911 -1.79848,-16.34495 -6.86189,-33.39802 -18.93155,-45.15763 C 431.5093,531.962 413.02976,524.8216 394.90427,518.91551 Z"
             style="fill:url(#radialGradient4367-1);fill-opacity:1;fill-rule:nonzero;stroke:#000000;stroke-width:5;stroke-linecap:round;stroke-linejoin:miter;stroke-miterlimit:4;stroke-dasharray:none;stroke-opacity:1" />
          <path
             inkscape:transform-center-y="-36.72254"
             inkscape:transform-center-x="-64.092747"
             inkscape:connector-curvature="0"
             id="rect3436-1-7"
             d="m 627.39117,387.26354 c -7.68383,4.13609 -11.53877,13.4879 -10.95048,21.94636 0.40024,5.09424 1.69632,10.84261 5.9172,14.12432 5.30046,3.37361 10.17948,-1.57387 14.6951,-3.85475 13.24717,-7.3403 27.94942,-14.27103 43.48831,-12.93427 13.27814,1.50021 25.67167,6.72722 38.3446,10.58868 4.60353,1.39864 10.92629,1.94078 13.76814,-2.87095 1.86227,-4.04734 1.47849,-8.88496 1.08687,-13.2551 -0.7776,-4.71894 -2.202,-9.95872 -6.57134,-12.57586 -12.82934,-10.28591 -28.46805,-18.76388 -45.31789,-18.54464 -19.35158,0.71781 -37.46762,8.73579 -54.46051,17.37621 z"
             style="fill:url(#radialGradient4367-2);fill-opacity:1;fill-rule:nonzero;stroke:#000000;stroke-width:5;stroke-linecap:round;stroke-linejoin:miter;stroke-miterlimit:4;stroke-dasharray:none;stroke-opacity:1" />
          <path
             id="rect3436-0"
             d="m 556.42527,517.26951 c -0.48971,-0.4897 -1.15218,-0.68678 -1.7871,-0.60491 a 8.4821033,18.0623 45 0 0 -0.57729,-0.74301 8.4821033,18.0623 45 0 0 -18.77009,6.77414 8.4821033,18.0623 45 0 0 -6.77414,18.77009 8.4821033,18.0623 45 0 0 0.74578,0.56347 c -0.0867,0.63912 0.10886,1.30764 0.60214,1.80092 l 68.94429,68.94429 c 0.50563,0.50562 1.1945,0.70032 1.84788,0.59662 a 8.4821033,18.0623 45 0 0 17.89863,-7.41081 8.4821033,18.0623 45 0 0 7.41082,-17.90693 c 0.10073,-0.65095 -0.0931,-1.33607 -0.59663,-1.83958 l -68.94429,-68.94429 z"
             style="fill:url(#radialGradient4299-3);fill-opacity:1;fill-rule:nonzero;stroke:#000000;stroke-width:5;stroke-linecap:round;stroke-linejoin:miter;stroke-miterlimit:4;stroke-dasharray:none;stroke-opacity:1"
             inkscape:connector-curvature="0" />
        </g>
      </g>
      <g
         id="g6859"
         style="stroke:#000000;stroke-opacity:1">
        <path
           style="fill:none;fill-rule:evenodd;stroke:#000000;stroke-width:11.25639439;stroke-linecap:butt;stroke-linejoin:miter;stroke-miterlimit:4;stroke-dasharray:none;stroke-opacity:1;marker-start:url(#TriangleInM)"
           d="M 272.78694,492.90147 C 142.51931,494.28138 140,592.36221 140,592.36221 c -1.10398,0 0.38151,139.23938 0.38151,139.23938 C 140,832.36221 253.9087,832.17878 253.9087,832.17878 l 170.21816,1.26027"
           id="path5905-2"
           inkscape:connector-curvature="0"
           sodipodi:nodetypes="csccc"
           inkscape:export-xdpi="90"
           inkscape:export-ydpi="90" />
        <path
           style="fill:none;fill-rule:evenodd;stroke:#000000;stroke-width:11.25599957;stroke-linecap:square;stroke-linejoin:miter;stroke-miterlimit:4;stroke-dasharray:none;stroke-opacity:1;marker-end:url(#TriangleOutM)"
           d="m 868.23084,490.45476 c 130.26766,1.37991 132.78696,99.46074 132.78696,99.46074 1.104,0 -0.3815,139.23938 -0.3815,139.23938 0.3815,100.76062 -113.52722,100.57719 -113.52722,100.57719 l -154.6626,1.26027"
           id="path5905-2-9"
           inkscape:connector-curvature="0"
           sodipodi:nodetypes="csccc"
           inkscape:export-xdpi="90"
           inkscape:export-ydpi="90" />
      </g>
    </g>
  </g>
</svg>
