<?xml version="1.0" encoding="UTF-8" standalone="no"?>
<!-- Created with Inkscape (http://www.inkscape.org/) -->

<svg
   xmlns:osb="http://www.openswatchbook.org/uri/2009/osb"
   xmlns:dc="http://purl.org/dc/elements/1.1/"
   xmlns:cc="http://creativecommons.org/ns#"
   xmlns:rdf="http://www.w3.org/1999/02/22-rdf-syntax-ns#"
   xmlns:svg="http://www.w3.org/2000/svg"
   xmlns="http://www.w3.org/2000/svg"
   xmlns:sodipodi="http://sodipodi.sourceforge.net/DTD/sodipodi-0.dtd"
   xmlns:inkscape="http://www.inkscape.org/namespaces/inkscape"
   width="297mm"
   height="210mm"
   viewBox="0 0 1052.3622 744.09448"
   id="svg2"
   version="1.1"
   inkscape:version="0.91 r13725"
   sodipodi:docname="Logo.svg"
   inkscape:export-filename="C:\Users\Mario Muscarella\GitHub\mmuscarella.github.io\images\Logo.png"
   inkscape:export-xdpi="90"
   inkscape:export-ydpi="90">
  <defs
     id="defs4">
    <marker
       inkscape:stockid="TriangleOutM"
       orient="auto"
       refY="0"
       refX="0"
       id="TriangleOutM"
       style="overflow:visible"
       inkscape:isstock="true">
      <path
         id="path6071"
         d="m 5.77,0 -8.65,5 0,-10 8.65,5 z"
         style="fill:#000000;fill-opacity:1;fill-rule:evenodd;stroke:#000000;stroke-width:1pt;stroke-opacity:1"
         transform="scale(0.4,0.4)"
         inkscape:connector-curvature="0" />
    </marker>
    <marker
       inkscape:stockid="TriangleInM"
       orient="auto"
       refY="0"
       refX="0"
       id="TriangleInM"
       style="overflow:visible"
       inkscape:isstock="true">
      <path
         id="path6062"
         d="m 5.77,0 -8.65,5 0,-10 8.65,5 z"
         style="fill:#000000;fill-opacity:1;fill-rule:evenodd;stroke:#000000;stroke-width:1pt;stroke-opacity:1"
         transform="scale(-0.4,-0.4)"
         inkscape:connector-curvature="0" />
    </marker>
    <linearGradient
       id="linearGradient5678"
       osb:paint="solid">
      <stop
         style="stop-color:#6562c0;stop-opacity:1;"
         offset="0"
         id="stop5680" />
    </linearGradient>
  </defs>
  <sodipodi:namedview
     id="base"
     pagecolor="#ffffff"
     bordercolor="#666666"
     borderopacity="1.0"
     inkscape:pageopacity="0.0"
     inkscape:pageshadow="2"
     inkscape:zoom="0.41053452"
     inkscape:cx="130.23376"
     inkscape:cy="578.33511"
     inkscape:document-units="px"
     inkscape:current-layer="layer1"
     showgrid="false"
     inkscape:snap-midpoints="true"
     inkscape:snap-smooth-nodes="true"
     inkscape:window-width="1366"
     inkscape:window-height="716"
     inkscape:window-x="-8"
     inkscape:window-y="-8"
     inkscape:window-maximized="1" />
  <metadata
     id="metadata7">
    <rdf:RDF>
      <cc:Work
         rdf:about="">
        <dc:format>image/svg+xml</dc:format>
        <dc:type
           rdf:resource="http://purl.org/dc/dcmitype/StillImage" />
        <dc:title></dc:title>
      </cc:Work>
    </rdf:RDF>
  </metadata>
  <g
     inkscape:label="Layer 1"
     inkscape:groupmode="layer"
     id="layer1"
     transform="translate(0,-308.26772)">
    <rect
       style="opacity:0;fill:#ffffff;fill-opacity:1;fill-rule:nonzero;stroke:#000000;stroke-width:1;stroke-linecap:round;stroke-linejoin:miter;stroke-miterlimit:4;stroke-dasharray:none;stroke-opacity:1"
       id="rect5081"
       width="716.73895"
       height="631.91779"
       x="11.309491"
       y="14.716423"
       ry="1.40845" />
    <path
       style="fill:#e6e6e6;fill-opacity:1;fill-rule:nonzero;stroke:#000000;stroke-width:2.03115082;stroke-linecap:round;stroke-linejoin:miter;stroke-miterlimit:4;stroke-dasharray:none;stroke-opacity:1"
       d="m 474.5876,702.59663 a 24.590907,17.471727 0 0 0 -2.45459,0.0687 24.590907,17.471727 0 0 0 -19.35966,8.98124 24.590907,17.471727 0 0 0 -19.22304,17.30112 24.590907,17.471727 0 0 0 -5.51793,-0.11293 24.590907,17.471727 0 0 0 -21.93521,14.00625 24.590907,17.471727 0 0 0 -14.45826,16.93409 24.590907,17.471727 0 0 0 6.48184,10.80009 24.590907,17.471727 0 0 0 -7.33255,13.48196 24.590907,17.471727 0 0 0 2.46628,6.62202 24.590907,17.471727 0 0 0 -2.79018,3.86349 24.590907,17.471727 0 0 0 -19.1684,18.04719 24.590907,17.471727 0 0 0 25.2678,16.44209 24.590907,17.471727 0 0 0 7.68374,-1.06064 24.590907,17.471727 0 0 0 -11.33244,15.73231 24.590907,17.471727 0 0 0 1.35801,4.72657 24.590907,17.471727 0 0 0 -6.14233,12.57454 24.590907,17.471727 0 0 0 25.26781,16.4421 24.590907,17.471727 0 0 0 1.22926,-0.0728 24.590907,17.471727 0 0 0 -1.93168,7.82786 24.590907,17.471727 0 0 0 17.18602,15.62745 24.590907,17.471727 0 0 0 -0.043,2.20194 24.590907,17.471727 0 0 0 25.2678,16.44214 24.590907,17.471727 0 0 0 22.16937,-11.12678 24.590907,17.471727 0 0 0 12.09732,-3.81107 24.590907,17.471727 0 0 0 21.9547,8.68685 24.590907,17.471727 0 0 0 14.30219,-3.6538 24.590907,17.471727 0 0 0 21.32642,7.96093 24.590907,17.471727 0 0 0 23.14491,-13.34484 24.590907,17.471727 0 0 0 3.85556,2.1818 24.590907,17.471727 0 0 0 0.23022,1.29454 24.590907,17.471727 0 0 0 -1.62339,7.25517 24.590907,17.471727 0 0 0 25.26783,16.44212 24.590907,17.471727 0 0 0 23.87074,-17.46647 l -0.16781,-2.04063 a 24.590907,17.471727 0 0 0 -0.12484,-0.52025 24.590907,17.471727 0 0 0 1.6585,-6.24695 l -0.16783,-2.04064 a 24.590907,17.471727 0 0 0 -0.88194,-2.94402 24.590907,17.471727 0 0 0 18.17332,5.17824 24.590907,17.471727 0 0 0 20.61228,-8.79574 24.590907,17.471727 0 0 0 24.0737,12.06641 24.590907,17.471727 0 0 0 23.87078,-17.46644 l -0.16784,-2.04068 a 24.590907,17.471727 0 0 0 -4.21844,-7.90444 24.590907,17.471727 0 0 0 4.15993,-9.70717 l -0.16785,-2.04063 a 24.590907,17.471727 0 0 0 -2.15019,-5.32343 24.590907,17.471727 0 0 0 16.9792,-16.59131 l -0.16782,-2.04066 a 24.590907,17.471727 0 0 0 -25.24833,-15.40161 24.590907,17.471727 0 0 0 -8.58517,-1.58491 24.590907,17.471727 0 0 0 0.23414,-2.26648 l -0.16783,-2.04066 a 24.590907,17.471727 0 0 0 -4.83892,-8.51342 24.590907,17.471727 0 0 0 2.05263,-2.41168 24.590907,17.471727 0 0 0 10.33347,1.38732 24.590907,17.471727 0 0 0 23.87075,-17.46244 l -0.16785,-2.04063 a 24.590907,17.471727 0 0 0 -24.1244,-15.42986 24.590907,17.471727 0 0 0 -2.4546,0.0645 24.590907,17.471727 0 0 0 -8.54616,1.69787 24.590907,17.471727 0 0 0 -6.83695,-6.91239 24.590907,17.471727 0 0 0 2.88775,-8.17063 l -0.16786,-2.0447 a 24.590907,17.471727 0 0 0 -5.74035,-9.3039 24.590907,17.471727 0 0 0 2.99702,0.0808 24.590907,17.471727 0 0 0 23.87076,-17.46243 l -0.16784,-2.04063 a 24.590907,17.471727 0 0 0 -26.57902,-15.36533 24.590907,17.471727 0 0 0 -11.59781,2.93596 24.590907,17.471727 0 0 0 -16.41336,-5.94045 24.590907,17.471727 0 0 0 -15.0007,-2.53266 24.590907,17.471727 0 0 0 -14.5246,4.58137 24.590907,17.471727 0 0 0 -18.55185,-4.3999 24.590907,17.471727 0 0 0 -16.36652,5.93241 24.590907,17.471727 0 0 0 -20.51081,-5.79126 24.590907,17.471727 0 0 0 -16.71774,6.23892 24.590907,17.471727 0 0 0 -21.20935,-9.02564 24.590907,17.471727 0 0 0 -2.45851,0.0645 24.590907,17.471727 0 0 0 -22.39177,18.42629 24.590907,17.471727 0 0 0 2.20485,6.23485 24.590907,17.471727 0 0 0 -7.98035,-6.58168 24.590907,17.471727 0 0 0 4.7609,-10.28791 l -0.16783,-2.04063 a 24.590907,17.471727 0 0 0 -24.12439,-15.42982 z m 27.81605,34.82805 a 24.590907,17.471727 0 0 0 1.68191,2.01643 24.590907,17.471727 0 0 0 0.81559,3.04886 24.590907,17.471727 0 0 0 -0.47218,-0.13703 24.590907,17.471727 0 0 0 -2.02532,-4.92819 z m 80.95456,6.44051 a 24.590907,17.471727 0 0 0 0.91314,0.6977 24.590907,17.471727 0 0 0 -5.97452,12.44147 24.590907,17.471727 0 0 0 0.0312,0.29037 24.590907,17.471727 0 0 0 -0.21072,0.0969 24.590907,17.471727 0 0 0 -20.91278,-6.15016 24.590907,17.471727 0 0 0 -21.20157,11.99784 24.590907,17.471727 0 0 0 -3.86333,1.05663 24.590907,17.471727 0 0 0 -12.27293,-9.8322 24.590907,17.471727 0 0 0 -0.15601,-0.35893 24.590907,17.471727 0 0 0 9.57642,1.16553 24.590907,17.471727 0 0 0 20.72155,-8.949 24.590907,17.471727 0 0 0 15.53921,3.54492 24.590907,17.471727 0 0 0 17.81041,-6.00096 z m -128.60246,2.10518 a 24.590907,17.471727 0 0 0 0.79999,0.0848 24.590907,17.471727 0 0 0 16.16361,15.05075 24.590907,17.471727 0 0 0 4.54235,7.96897 24.590907,17.471727 0 0 0 -0.13262,0.31056 24.590907,17.471727 0 0 0 -9.99004,2.91173 24.590907,17.471727 0 0 0 0.12088,-1.67769 l -0.16783,-2.04064 a 24.590907,17.471727 0 0 0 -14.38412,-13.88926 24.590907,17.471727 0 0 0 3.07117,-8.44892 l -0.0232,-0.27021 z m 169.89727,2.00435 a 24.590907,17.471727 0 0 0 7.94524,1.48006 24.590907,17.471727 0 0 0 10.31785,2.50039 24.590907,17.471727 0 0 0 -10.63004,15.41372 24.590907,17.471727 0 0 0 2.61457,6.83575 24.590907,17.471727 0 0 0 -10.68858,-1.84707 24.590907,17.471727 0 0 0 -2.45849,0.0687 24.590907,17.471727 0 0 0 -5.52573,0.83079 24.590907,17.471727 0 0 0 0.0936,-1.34297 l -0.10522,-1.29455 a 24.590907,17.471727 0 0 0 11.21928,-14.63538 l -0.16785,-2.04466 a 24.590907,17.471727 0 0 0 -2.6146,-5.96465 z m -114.30806,42.38971 a 24.590907,17.471727 0 0 0 -0.51122,2.45603 24.590907,17.471727 0 0 0 -2.51312,-1.16952 24.590907,17.471727 0 0 0 -0.24973,-0.35895 24.590907,17.471727 0 0 0 3.27407,-0.92756 z m 105.438,15.93396 a 24.590907,17.471727 0 0 0 8.84668,0.99613 24.590907,17.471727 0 0 0 0.99509,-0.0565 24.590907,17.471727 0 0 0 -1.4361,5.65814 24.590907,17.471727 0 0 0 -3.97257,-0.22584 24.590907,17.471727 0 0 0 -4.4331,-6.37197 z m -185.79941,14.02236 a 24.590907,17.471727 0 0 0 6.02915,3.69415 24.590907,17.471727 0 0 0 -4.917,-0.42346 24.590907,17.471727 0 0 0 -2.45846,0.0687 24.590907,17.471727 0 0 0 -8.41742,1.65753 24.590907,17.471727 0 0 0 -0.008,0 24.590907,17.471727 0 0 0 -4.90137,-0.0444 24.590907,17.471727 0 0 0 -6.25159,1.00421 24.590907,17.471727 0 0 0 4.8936,-2.88756 24.590907,17.471727 0 0 0 2.73944,0.0606 24.590907,17.471727 0 0 0 13.29143,-3.12954 z m 213.80281,14.86928 a 24.590907,17.471727 0 0 0 19.21521,8.41263 24.590907,17.471727 0 0 0 -0.1912,3.26663 24.590907,17.471727 0 0 0 6.28671,10.65088 24.590907,17.471727 0 0 0 -9.71298,14.93378 24.590907,17.471727 0 0 0 4.33942,8.92479 24.590907,17.471727 0 0 0 -0.88972,1.05258 24.590907,17.471727 0 0 0 -16.1519,-11.28805 24.590907,17.471727 0 0 0 10.34127,-14.21594 l -0.16783,-2.04066 a 24.590907,17.471727 0 0 0 -16.66699,-14.52647 24.590907,17.471727 0 0 0 3.59798,-5.17017 z m -53.36098,35.65076 a 24.590907,17.471727 0 0 0 16.24947,3.93209 24.590907,17.471727 0 0 0 12.92854,-2.95612 24.590907,17.471727 0 0 0 5.59598,1.79058 24.590907,17.471727 0 0 0 -10.27494,15.22821 24.590907,17.471727 0 0 0 1.01071,3.96435 24.590907,17.471727 0 0 0 -4.28479,-2.44797 l -0.0622,-0.74611 a 24.590907,17.471727 0 0 0 -22.68837,-15.37336 24.590907,17.471727 0 0 0 1.52583,-3.39167 z m -29.75944,13.38113 a 24.590907,17.471727 0 0 0 3.98042,0.45571 24.590907,17.471727 0 0 0 -1.33069,2.84723 24.590907,17.471727 0 0 0 -4.03507,-2.24633 24.590907,17.471727 0 0 0 1.38534,-1.05661 z"
       id="path4391"
       inkscape:connector-curvature="0" />
    <path
       style="fill:#e6e6e6;fill-opacity:1;fill-rule:nonzero;stroke:#000000;stroke-width:1.52087498;stroke-linecap:round;stroke-linejoin:miter;stroke-miterlimit:4;stroke-dasharray:none;stroke-opacity:1"
       d="m 548.47909,317.22427 a 33.608523,37.342803 0 0 0 -3.35661,0.13961 33.608523,37.342803 0 0 0 -25.73013,17.81384 33.608523,37.342803 0 0 0 -15.03347,27.43813 33.608523,37.342803 0 0 0 -0.82877,-0.57033 33.608523,37.342803 0 0 0 0.14554,-3.25266 l -0.22872,-4.36061 a 33.608523,37.342803 0 0 0 -36.32576,-32.83843 33.608523,37.342803 0 0 0 -16.28404,6.60926 33.608523,37.342803 0 0 0 -8.08559,-1.26541 33.608523,37.342803 0 0 0 -3.35664,0.13961 33.608523,37.342803 0 0 0 -30.58681,35.44054 33.608523,37.342803 0 0 0 -18.48815,11.10357 33.608523,37.342803 0 0 0 -32.35719,-19.21884 33.608523,37.342803 0 0 0 -25.94399,18.14355 33.608523,37.342803 0 0 0 -18.58022,-6.5855 33.608523,37.342803 0 0 0 -3.35663,0.13961 33.608523,37.342803 0 0 0 -30.17689,31.03834 33.608523,37.342803 0 0 0 -7.63408,25.88755 33.608523,37.342803 0 0 0 0.37131,3.47545 33.608523,37.342803 0 0 0 -1.64563,13.71755 33.608523,37.342803 0 0 0 2.84272,12.88289 33.608523,37.342803 0 0 0 -1.30402,0.0536 33.608523,37.342803 0 0 0 -30.60465,39.3853 33.608523,37.342803 0 0 0 4.77354,17.01479 33.608523,37.342803 0 0 0 -0.0237,4.1438 33.608523,37.342803 0 0 0 19.16838,31.51953 33.608523,37.342803 0 0 0 -10.75009,29.58281 33.608523,37.342803 0 0 0 30.06698,34.93853 33.608523,37.342803 0 0 0 -8.49551,27.04306 33.608523,37.342803 0 0 0 34.53455,35.1435 33.608523,37.342803 0 0 0 32.00373,-30.25412 33.608523,37.342803 0 0 0 9.27674,1.18521 33.608523,37.342803 0 0 0 14.85228,-4.43786 33.608523,37.342803 0 0 0 31.87897,22.64677 33.608523,37.342803 0 0 0 3.94181,-0.41586 33.608523,37.342803 0 0 0 31.04427,20.72193 33.608523,37.342803 0 0 0 24.86867,-13.53638 33.608523,37.342803 0 0 0 18.06039,5.21611 33.608523,37.342803 0 0 0 25.7628,-14.79287 33.608523,37.342803 0 0 0 6.72512,0.57922 33.608523,37.342803 0 0 0 26.61234,-16.08502 33.608523,37.342803 0 0 0 18.41387,5.43889 33.608523,37.342803 0 0 0 12.75218,-3.25858 33.608523,37.342803 0 0 0 12.48484,2.26943 33.608523,37.342803 0 0 0 19.33473,-7.63408 33.608523,37.342803 0 0 0 27.51536,14.47802 33.608523,37.342803 0 0 0 20.33279,-8.48958 33.608523,37.342803 0 0 0 7.02513,-1.68424 33.608523,37.342803 0 0 0 33.45628,27.88964 33.608523,37.342803 0 0 0 29.10754,-20.79024 33.608523,37.342803 0 0 0 15.08696,3.49325 33.608523,37.342803 0 0 0 32.62454,-37.32678 l -0.22872,-4.36361 a 33.608523,37.342803 0 0 0 -0.68916,-4.13488 33.608523,37.342803 0 0 0 20.20507,-14.96517 33.608523,37.342803 0 0 0 33.43549,27.80351 33.608523,37.342803 0 0 0 32.62752,-37.32681 l -0.2317,-4.36064 a 33.608523,37.342803 0 0 0 -16.94944,-28.21339 33.608523,37.342803 0 0 0 13.26608,-29.68382 l -0.2317,-4.36359 a 33.608523,37.342803 0 0 0 -6.06866,-17.32373 33.608523,37.342803 0 0 0 1.70207,-11.62339 l -0.22872,-4.36064 a 33.608523,37.342803 0 0 0 -36.32573,-32.83844 33.608523,37.342803 0 0 0 -0.26437,0.0327 33.608523,37.342803 0 0 0 0.85845,-8.27569 l -0.22873,-4.36065 a 33.608523,37.342803 0 0 0 -12.02441,-24.43201 33.608523,37.342803 0 0 0 0.64755,-7.2509 l -0.22871,-4.36062 a 33.608523,37.342803 0 0 0 -36.32574,-32.83843 33.608523,37.342803 0 0 0 -24.03102,14.93843 33.608523,37.342803 0 0 0 -30.44722,-15.74638 33.608523,37.342803 0 0 0 -27.41137,21.18531 33.608523,37.342803 0 0 0 -18.66934,-25.97966 33.608523,37.342803 0 0 0 -23.52902,-16.09988 33.608523,37.342803 0 0 0 -23.49333,-7.70241 33.608523,37.342803 0 0 0 -10.23324,2.87543 33.608523,37.342803 0 0 0 -26.13709,-13.65817 33.608523,37.342803 0 0 0 -24.65182,-12.48782 z m -29.7937,79.87861 a 33.608523,37.342803 0 0 0 20.0506,6.62412 33.608523,37.342803 0 0 0 16.30783,-5.3587 33.608523,37.342803 0 0 0 19.24856,5.98844 33.608523,37.342803 0 0 0 12.21453,-3.0269 33.608523,37.342803 0 0 0 21.71109,13.36112 33.608523,37.342803 0 0 0 6.26766,4.28936 33.608523,37.342803 0 0 0 28.84316,16.46227 33.608523,37.342803 0 0 0 29.37783,-21.32194 33.608523,37.342803 0 0 0 33.83056,29.49664 33.608523,37.342803 0 0 0 3.30909,-0.33566 33.608523,37.342803 0 0 0 -0.53171,9.10148 33.608523,37.342803 0 0 0 0.73965,5.79241 33.608523,37.342803 0 0 0 -26.00043,38.52389 33.608523,37.342803 0 0 0 21.6695,32.72852 33.608523,37.342803 0 0 0 0.0297,0.88222 33.608523,37.342803 0 0 0 16.55735,29.98084 33.608523,37.342803 0 0 0 -11.30258,-2.42983 33.608523,37.342803 0 0 0 -3.35665,0.14249 33.608523,37.342803 0 0 0 -15.91571,6.31223 33.608523,37.342803 0 0 0 -31.20467,-24.7766 33.608523,37.342803 0 0 0 -3.35662,0.14249 33.608523,37.342803 0 0 0 -30.62247,36.66441 33.608523,37.342803 0 0 0 -4.2329,3.23482 33.608523,37.342803 0 0 0 -16.91081,7.45287 33.608523,37.342803 0 0 0 -11.16894,-10.29264 33.608523,37.342803 0 0 0 -29.25606,-19.87236 33.608523,37.342803 0 0 0 -3.35661,0.14251 33.608523,37.342803 0 0 0 -28.60849,24.47063 33.608523,37.342803 0 0 0 -6.939,8.12421 33.608523,37.342803 0 0 0 -6.79639,-3.47247 33.608523,37.342803 0 0 0 -31.82552,-26.93017 33.608523,37.342803 0 0 0 -3.35661,0.13961 33.608523,37.342803 0 0 0 -8.67968,2.20704 33.608523,37.342803 0 0 0 -10.59563,-0.86144 33.608523,37.342803 0 0 0 -21.79425,11.92936 33.608523,37.342803 0 0 0 -27.65498,-16.87812 33.608523,37.342803 0 0 0 -3.35957,0.1425 33.608523,37.342803 0 0 0 -4.55966,0.84658 33.608523,37.342803 0 0 0 0.24655,-4.32797 l -0.22873,-4.3636 a 33.608523,37.342803 0 0 0 -33.99096,-32.93347 33.608523,37.342803 0 0 0 -25.47169,-13.57799 33.608523,37.342803 0 0 0 -3.35959,0.14251 33.608523,37.342803 0 0 0 -30.60166,39.38236 33.608523,37.342803 0 0 0 1.69019,9.52626 33.608523,37.342803 0 0 0 -12.70762,-11.66797 33.608523,37.342803 0 0 0 10.80652,-27.39654 l -0.2317,-4.36064 a 33.608523,37.342803 0 0 0 -4.6042,-14.86416 33.608523,37.342803 0 0 0 0.0861,-1.93379 l -0.22872,-4.36064 a 33.608523,37.342803 0 0 0 -2.66747,-10.69066 33.608523,37.342803 0 0 0 22.95867,-11.91153 33.608523,37.342803 0 0 0 2.72984,0.0623 33.608523,37.342803 0 0 0 32.50871,-34.75141 33.608523,37.342803 0 0 0 20.89125,-11.45408 33.608523,37.342803 0 0 0 30.37888,19.31987 33.608523,37.342803 0 0 0 32.54731,-35.57126 33.608523,37.342803 0 0 0 4.02796,-1.11688 33.608523,37.342803 0 0 0 34.03849,30.7591 33.608523,37.342803 0 0 0 32.41068,-33.53649 z m 245.01831,82.28766 a 33.608523,37.342803 0 0 0 8.91434,1.07827 33.608523,37.342803 0 0 0 2.23675,-0.19903 33.608523,37.342803 0 0 0 -0.81092,10.5006 33.608523,37.342803 0 0 0 6.24093,19.50699 33.608523,37.342803 0 0 0 -1.64266,13.80074 33.608523,37.342803 0 0 0 17.12172,30.3878 33.608523,37.342803 0 0 0 -6.79344,7.68757 33.608523,37.342803 0 0 0 -17.37421,-23.79042 33.608523,37.342803 0 0 0 1.31591,-10.23917 l -0.22872,-4.36063 a 33.608523,37.342803 0 0 0 -21.54177,-30.57791 l -0.1604,-3.03283 a 33.608523,37.342803 0 0 0 -0.54954,-3.61803 33.608523,37.342803 0 0 0 13.27201,-7.14395 z m -443.19248,81.47967 a 33.608523,37.342803 0 0 0 14.12453,12.4106 33.608523,37.342803 0 0 0 -16.08207,25.18651 33.608523,37.342803 0 0 0 -4.84778,-0.99509 33.608523,37.342803 0 0 0 8.55194,-24.85681 l -0.22872,-4.36064 a 33.608523,37.342803 0 0 0 -1.5179,-7.38457 z m 61.11124,27.87777 a 33.608523,37.342803 0 0 0 -0.0355,0.28814 33.608523,37.342803 0 0 0 -0.10994,-0.2525 33.608523,37.342803 0 0 0 0.14555,-0.0355 z"
       id="path4668"
       inkscape:connector-curvature="0" />
    <ellipse
       style="fill:#f40b0b;fill-opacity:1;fill-rule:evenodd;stroke:#000000;stroke-width:1.52087498px;stroke-linecap:butt;stroke-linejoin:miter;stroke-opacity:1"
       id="path3336"
       cx="538.84668"
       cy="497.24902"
       rx="238.99464"
       ry="97.770538"
       inkscape:export-xdpi="90"
       inkscape:export-ydpi="90" />
    <rect
       style="fill:#0000ff;fill-rule:evenodd;stroke:#000000;stroke-width:1.52087498px;stroke-linecap:butt;stroke-linejoin:miter;stroke-opacity:1"
       id="rect3343"
       width="4.2841549"
       height="51.409863"
       x="543.54639"
       y="349.88217"
       ry="2.1420774" />
    <rect
       style="fill:#0000ff;fill-rule:evenodd;stroke:#000000;stroke-width:1.52087498px;stroke-linecap:butt;stroke-linejoin:miter;stroke-opacity:1"
       id="rect3343-1"
       width="4.2841549"
       height="51.409863"
       x="749.62054"
       y="117.00118"
       ry="2.1420774"
       transform="matrix(0.93969262,0.34202014,-0.34202014,0.93969262,0,0)" />
    <rect
       style="fill:#0000ff;fill-rule:evenodd;stroke:#000000;stroke-width:1.52087498px;stroke-linecap:butt;stroke-linejoin:miter;stroke-opacity:1"
       id="rect3343-9"
       width="4.2841549"
       height="51.409863"
       x="-75.465881"
       y="504.11121"
       ry="2.1420774"
       transform="matrix(0.70710678,-0.70710678,0.70710678,0.70710678,0,0)" />
    <rect
       style="fill:#0000ff;fill-rule:evenodd;stroke:#000000;stroke-width:1.52087498px;stroke-linecap:butt;stroke-linejoin:miter;stroke-opacity:1"
       id="rect3343-91"
       width="4.2841549"
       height="51.409863"
       x="252.17703"
       y="483.56427"
       ry="2.1420774"
       transform="matrix(0.93969262,-0.34202014,0.34202014,0.93969262,0,0)" />
    <rect
       style="fill:#0000ff;fill-rule:evenodd;stroke:#000000;stroke-width:1.52087498px;stroke-linecap:butt;stroke-linejoin:miter;stroke-opacity:1"
       id="rect3343-0"
       width="4.2841549"
       height="51.409863"
       x="-652.28735"
       y="-136.18613"
       ry="2.1420774"
       transform="matrix(-0.64278761,-0.76604444,0.76604444,-0.64278761,0,0)" />
    <rect
       style="fill:#0000ff;fill-rule:evenodd;stroke:#000000;stroke-width:1.52087498px;stroke-linecap:butt;stroke-linejoin:miter;stroke-opacity:1"
       id="rect3343-6"
       width="4.2841549"
       height="51.409863"
       x="-611.88013"
       y="-448.79233"
       ry="2.1420774"
       transform="matrix(-0.93969262,-0.34202014,0.34202014,-0.93969262,0,0)" />
    <rect
       style="fill:#0000ff;fill-rule:evenodd;stroke:#000000;stroke-width:1.52087498px;stroke-linecap:butt;stroke-linejoin:miter;stroke-opacity:1"
       id="rect3343-4"
       width="4.2841549"
       height="51.409863"
       x="538.73804"
       y="592.63025"
       ry="2.1420774" />
    <rect
       style="fill:#0000ff;fill-rule:evenodd;stroke:#000000;stroke-width:1.52087498px;stroke-linecap:butt;stroke-linejoin:miter;stroke-opacity:1"
       id="rect3343-01"
       width="4.2841549"
       height="51.409863"
       x="495.77454"
       y="-824.70203"
       ry="2.1420774"
       transform="matrix(0,1,-1,0,0,0)" />
    <rect
       style="fill:#0000ff;fill-rule:evenodd;stroke:#000000;stroke-width:1.52087498px;stroke-linecap:butt;stroke-linejoin:miter;stroke-opacity:1"
       id="rect3343-3"
       width="4.2841549"
       height="51.409863"
       x="-128.03012"
       y="-958.6618"
       ry="2.1420774"
       transform="matrix(-0.70710678,0.70710678,-0.70710678,-0.70710678,0,0)" />
    <rect
       style="fill:#0000ff;fill-rule:evenodd;stroke:#000000;stroke-width:1.52087498px;stroke-linecap:butt;stroke-linejoin:miter;stroke-opacity:1"
       id="rect3343-8"
       width="4.2841549"
       height="51.409863"
       x="-427.74173"
       y="-821.56348"
       ry="2.1420774"
       transform="matrix(-0.93969262,0.34202014,-0.34202014,-0.93969262,0,0)" />
    <rect
       style="fill:#0000ff;fill-rule:evenodd;stroke:#000000;stroke-width:1.52087498px;stroke-linecap:butt;stroke-linejoin:miter;stroke-opacity:1"
       id="rect3343-41"
       width="4.2841549"
       height="51.409863"
       x="829.38306"
       y="-256.1416"
       ry="2.1420774"
       transform="matrix(0.70710678,0.70710678,-0.70710678,0.70710678,0,0)" />
    <rect
       style="fill:#0000ff;fill-rule:evenodd;stroke:#000000;stroke-width:1.52087498px;stroke-linecap:butt;stroke-linejoin:miter;stroke-opacity:1"
       id="rect3343-08"
       width="4.2841549"
       height="51.409863"
       x="-503.58228"
       y="253.30415"
       ry="2.1420774"
       transform="matrix(0,-1,1,0,0,0)" />
    <circle
       style="fill:#0000fb;fill-opacity:0"
       id="path5696"
       cx="320.50098"
       cy="521.91913"
       transform="matrix(0.98480775,-0.17364817,0.17364817,0.98480775,0,0)"
       r="1.4415877" />
    <ellipse
       style="fill:#0000fb;fill-opacity:0"
       id="path5698"
       cx="431.12924"
       cy="469.86917"
       rx="1.8019845"
       ry="2.1623816" />
    <ellipse
       style="fill:#0000fb;fill-opacity:0"
       id="path5700"
       cx="459.2402"
       cy="469.86917"
       rx="5.4059539"
       ry="2.1623816" />
    <ellipse
       style="fill:#0000ff;fill-opacity:1"
       id="path5702"
       ry="2.5227783"
       rx="2.1623816"
       cy="472.39194"
       cx="334.18246" />
    <ellipse
       style="fill:#0000ff;fill-opacity:1"
       id="path5702-7"
       ry="2.5227783"
       rx="2.1623816"
       cy="480.68103"
       cx="371.66376" />
    <ellipse
       style="fill:#0000ff;fill-opacity:1"
       id="path5702-1"
       ry="2.5227783"
       rx="2.1623816"
       cy="480.68103"
       cx="371.66376" />
    <ellipse
       style="fill:#0000ff;fill-opacity:1"
       id="path5702-79"
       ry="2.5227783"
       rx="2.1623816"
       cy="485.00586"
       cx="422.11935" />
    <ellipse
       style="fill:#0000ff;fill-opacity:1"
       id="path5702-4"
       ry="2.5227783"
       rx="2.1623816"
       cy="479.2395"
       cx="564.83655" />
    <ellipse
       style="fill:#0000ff;fill-opacity:1"
       id="path5702-5"
       ry="2.5227783"
       rx="2.1623816"
       cy="507.3504"
       cx="633.31189" />
    <ellipse
       style="fill:#0000ff;fill-opacity:1"
       id="path5702-8"
       ry="2.5227783"
       rx="2.1623816"
       cy="515.99994"
       cx="569.16125" />
    <ellipse
       style="fill:#0000ff;fill-opacity:1"
       id="path5702-84"
       ry="2.5227783"
       rx="2.1623816"
       cy="520.32477"
       cx="512.21857" />
    <ellipse
       style="fill:#0000ff;fill-opacity:1"
       id="path5702-86"
       ry="2.5227783"
       rx="2.1623816"
       cy="526.81183"
       cx="452.39267" />
    <ellipse
       style="fill:#0000ff;fill-opacity:1"
       id="path5702-51"
       ry="2.5227783"
       rx="2.1623816"
       cy="523.20795"
       cx="404.09949" />
    <ellipse
       style="fill:#0000ff;fill-opacity:1"
       id="path5702-22"
       ry="2.5227783"
       rx="2.1623816"
       cy="446.8038"
       cx="441.58078" />
    <ellipse
       style="fill:#0000ff;fill-opacity:1"
       id="path5702-28"
       ry="2.5227783"
       rx="2.1623816"
       cy="433.82947"
       cx="541.05029" />
    <ellipse
       style="fill:#0000ff;fill-opacity:1"
       id="path5702-70"
       ry="2.5227783"
       rx="2.1623816"
       cy="440.31662"
       cx="637.63666" />
    <ellipse
       style="fill:#0000ff;fill-opacity:1"
       id="path5702-6"
       ry="2.5227783"
       rx="2.1623816"
       cy="469.86917"
       cx="690.2547" />
    <ellipse
       style="fill:#0000ff;fill-opacity:1"
       id="path5702-3"
       ry="2.5227783"
       rx="2.1623816"
       cy="527.53265"
       cx="699.625" />
    <ellipse
       style="fill:#0000ff;fill-opacity:1"
       id="path5702-0"
       ry="2.5227783"
       rx="2.1623816"
       cy="534.7406"
       cx="614.57129" />
    <ellipse
       style="fill:#0000ff;fill-opacity:1"
       id="path5702-23"
       ry="2.5227783"
       rx="2.1623816"
       cy="559.24762"
       cx="530.95917" />
    <ellipse
       style="fill:#0000ff;fill-opacity:1"
       id="path5702-24"
       ry="2.5227783"
       rx="2.1623816"
       cy="560.68927"
       cx="474.73727" />
    <ellipse
       style="fill:#0000ff;fill-opacity:1"
       id="path5702-50"
       ry="2.5227783"
       rx="2.1623816"
       cy="549.87738"
       cx="407.70349" />
    <ellipse
       style="fill:#0000ff;fill-opacity:1"
       id="path5702-20"
       ry="2.5227783"
       rx="2.1623816"
       cy="519.60394"
       cx="337.06567" />
    <ellipse
       style="fill:#0000ff;fill-opacity:1"
       id="path5702-283"
       ry="2.5227783"
       rx="2.1623816"
       cy="443.19983"
       cx="389.68359" />
    <ellipse
       style="fill:#0000ff;fill-opacity:1"
       id="path5702-14"
       ry="2.5227783"
       rx="2.1623816"
       cy="487.88904"
       cx="461.04221" />
    <ellipse
       style="fill:#0000ff;fill-opacity:1"
       id="path5702-9"
       ry="2.5227783"
       rx="2.1623816"
       cy="433.82947"
       cx="486.99081" />
    <ellipse
       style="fill:#0000ff;fill-opacity:1"
       id="path5702-75"
       ry="2.5227783"
       rx="2.1623816"
       cy="428.78394"
       cx="585.01874" />
    <ellipse
       style="fill:#0000ff;fill-opacity:1"
       id="path5702-90"
       ry="2.5227783"
       rx="2.1623816"
       cy="466.98599"
       cx="623.22076" />
    <ellipse
       style="fill:#0000ff;fill-opacity:1"
       id="path5702-49"
       ry="2.5227783"
       rx="2.1623816"
       cy="567.89703"
       cx="592.94745" />
    <ellipse
       style="fill:#0000ff;fill-opacity:1"
       id="path5702-68"
       ry="2.5227783"
       rx="2.1623816"
       cy="541.22772"
       cx="664.30609" />
    <ellipse
       style="fill:#0000ff;fill-opacity:1"
       id="path5702-83"
       ry="2.5227783"
       rx="2.1623816"
       cy="489.33063"
       cx="740.71021" />
    <ellipse
       style="fill:#0000ff;fill-opacity:1"
       id="path5702-58"
       ry="2.5227783"
       rx="2.1623816"
       cy="523.20795"
       cx="368.05978" />
    <text
       xml:space="preserve"
       style="font-style:normal;font-variant:normal;font-weight:normal;font-stretch:normal;font-size:106.46124268px;line-height:125%;font-family:'Arial Rounded MT Bold';-inkscape-font-specification:'Arial Rounded MT Bold, Normal';text-align:start;letter-spacing:0px;word-spacing:0px;writing-mode:lr-tb;text-anchor:start;fill:#fb0000;fill-opacity:1;stroke:none;stroke-width:1px;stroke-linecap:butt;stroke-linejoin:miter;stroke-opacity:1"
       x="429.9231"
       y="823.60822"
       id="text5887"
       sodipodi:linespacing="125%"><tspan
         sodipodi:role="line"
         id="tspan5889"
         x="429.9231"
         y="823.60822">C</tspan></text>
    <text
       xml:space="preserve"
       style="font-style:normal;font-variant:normal;font-weight:normal;font-stretch:normal;font-size:106.46124268px;line-height:125%;font-family:'Arial Rounded MT Bold';-inkscape-font-specification:'Arial Rounded MT Bold, Normal';text-align:start;letter-spacing:0px;word-spacing:0px;writing-mode:lr-tb;text-anchor:start;fill:#0000fb;fill-opacity:1;stroke:none;stroke-width:1px;stroke-linecap:butt;stroke-linejoin:miter;stroke-opacity:1"
       x="541.77411"
       y="832.94696"
       id="text5891"
       sodipodi:linespacing="125%"><tspan
         sodipodi:role="line"
         id="tspan5893"
         x="541.77411"
         y="832.94696">N</tspan></text>
    <text
       xml:space="preserve"
       style="font-style:normal;font-variant:normal;font-weight:normal;font-stretch:normal;font-size:106.46124268px;line-height:125%;font-family:'Arial Rounded MT Bold';-inkscape-font-specification:'Arial Rounded MT Bold, Normal';text-align:start;letter-spacing:0px;word-spacing:0px;writing-mode:lr-tb;text-anchor:start;fill:#006d00;fill-opacity:1;stroke:none;stroke-width:1px;stroke-linecap:butt;stroke-linejoin:miter;stroke-opacity:1"
       x="485.74191"
       y="917.15533"
       id="text5895"
       sodipodi:linespacing="125%"><tspan
         sodipodi:role="line"
         id="tspan5897"
         x="485.74191"
         y="917.15533">P</tspan></text>
    <path
       style="fill:none;fill-rule:evenodd;stroke:#000000;stroke-width:11.08708763;stroke-linecap:butt;stroke-linejoin:miter;stroke-miterlimit:4;stroke-dasharray:none;stroke-opacity:1;marker-end:url(#TriangleOutM)"
       d="m 864.68713,496.75352 c 130.71897,1.3341 128.5034,125.40548 128.5034,125.40548 1.10779,0 -1.10781,96.05524 -1.10781,96.05524 0,104.05989 -128.50336,106.72809 -128.50336,106.72809 l -172.81489,0"
       id="path5905"
       inkscape:connector-curvature="0"
       sodipodi:nodetypes="csccc" />
    <path
       style="fill:none;fill-rule:evenodd;stroke:#000000;stroke-width:11.71033573;stroke-linecap:butt;stroke-linejoin:miter;stroke-miterlimit:4;stroke-dasharray:none;stroke-opacity:1;marker-start:url(#TriangleInM)"
       d="M 194.81799,495.41931 C 48.989502,496.7534 51.461175,620.82478 51.461175,620.82478 c -1.235851,0 1.235838,96.05526 1.235838,96.05526 0,104.05988 143.356827,106.72809 143.356827,106.72809 l 192.79015,0"
       id="path5905-2"
       inkscape:connector-curvature="0"
       sodipodi:nodetypes="csccc" />
    <ellipse
       style="fill:#0000ff;fill-opacity:1"
       id="path5702-2"
       ry="2.5227783"
       rx="2.1623816"
       cy="479.96033"
       cx="493.47794" />
  </g>
</svg>
